<?xml version="1.0" encoding="UTF-8"?>
<!DOCTYPE svg PUBLIC "-//W3C//DTD SVG 1.1//EN" "http://www.w3.org/Graphics/SVG/1.1/DTD/svg11.dtd">
<!-- Creator: CorelDRAW 2021 (64-Bit) -->
<svg xmlns="http://www.w3.org/2000/svg" xml:space="preserve" width="433.306mm" height="433.257mm" version="1.1" style="shape-rendering:geometricPrecision; text-rendering:geometricPrecision; image-rendering:optimizeQuality; fill-rule:evenodd; clip-rule:evenodd"
viewBox="0 0 36536.5 36532.41"
 xmlns:xlink="http://www.w3.org/1999/xlink"
 xmlns:xodm="http://www.corel.com/coreldraw/odm/2003">
 <defs>
  <style type="text/css">
   <![CDATA[
    .fil0 {fill:url(#id0)}
   ]]>
  </style>
  <linearGradient id="id0" gradientUnits="userSpaceOnUse" x1="18176.68" y1="36473.34" x2="18506.01" y2="736.6">
   <stop offset="0" style="stop-opacity:1; stop-color:#FEFFA8"/>
   <stop offset="1" style="stop-opacity:0.517647; stop-color:#FFFF99"/>
  </linearGradient>
 </defs>
 <g id="Layer_x0020_1">
  <metadata id="CorelCorpID_0Corel-Layer"/>
  <path class="fil0" d="M36536.5 36532.41l-4125.57 0 433.74 -1313.45 2674.76 -1072.08 1017.06 2385.53zm-15122.07 -23805.38l-2948.56 -4962.79 -3321.4 4935.68 887.23 23764.15 4289.96 18.57 1092.77 -23755.6zm3913.15 23805.38l-3085.13 0 -435.82 -43.41 1053.47 -14680.6 2982.16 -2792.15 2129.22 3639.25 -2643.91 13876.91zm5536.22 0l-3819.25 0 1393.42 -7274.77 3146.43 -1953.76 1467.81 3293.73 -2188.41 5934.8zm-26738.24 0l-4125.56 0 1017.06 -2385.53 2674.75 1072.08 433.74 1313.45zm10168.47 0l-3085.13 0 -2643.91 -13876.91 2129.22 -3639.25 2982.17 2792.15 1053.47 14680.6 -435.82 43.41zm-4802.11 0l-3819.24 0 -2188.39 -5934.8 1467.79 -3293.73 3146.43 1953.76 1393.41 7274.77zm11063.86 -29492.06l-2287.54 -1668.73 -2287.54 1668.73 880.16 -2691.25 -2293.94 -1659.92 2831.52 5.45 869.81 -2694.62 869.81 2694.62 2831.52 -5.45 -2293.94 1659.92 880.16 2691.25z"/>
 </g>
</svg>
